<svg id="图层_1" data-name="图层 1" xmlns="http://www.w3.org/2000/svg" viewBox="0 0 419.553 419.553"><defs><style>.cls-1{fill:none;stroke:#000;stroke-miterlimit:10;stroke-width:14px;}</style></defs><title>account</title><path d="M401.724,349.909a88.753,88.753,0,0,0-20.357-27.724c-17.471-16.226-40.816-25.535-64.06-25.535h-39.72c-23.245,0-46.59,9.309-64.06,25.535a89.349,89.349,0,0,0-20.358,27.724,79.689,79.689,0,0,0-7.616,34,27.679,27.679,0,0,0,27.675,27.675H381.665a27.679,27.679,0,0,0,27.675-27.675,79.689,79.689,0,0,0-7.616-34ZM381.665,395.95H213.228a12.055,12.055,0,0,1-12.046-12.045c0-18.865,8.264-36.833,23.345-50.62,14.584-13.339,33.9-21.005,53.06-21.005h39.72a79.591,79.591,0,0,1,53.059,21.005c15.032,13.787,23.345,31.755,23.345,50.62a12.023,12.023,0,0,1-12.046,12.045ZM297.447,292.42a67.42,67.42,0,1,0-67.4-67.445,67.478,67.478,0,0,0,67.4,67.445Zm0-119.211a51.766,51.766,0,1,1-51.766,51.766,51.822,51.822,0,0,1,51.766-51.766Zm0,0" transform="translate(-87.67 -74.803)"/><circle class="cls-1" cx="209.777" cy="209.777" r="202.777"/></svg>