<?xml version="1.0" standalone="no"?><!DOCTYPE svg PUBLIC "-//W3C//DTD SVG 1.1//EN" "http://www.w3.org/Graphics/SVG/1.1/DTD/svg11.dtd"><svg t="1596159979439" class="icon" viewBox="0 0 1024 1024" version="1.1" xmlns="http://www.w3.org/2000/svg" p-id="5459" xmlns:xlink="http://www.w3.org/1999/xlink" width="200" height="200"><defs><style type="text/css"></style></defs><path d="M389.2 885.8c-53.9 0-97.8-43.9-97.8-97.8 0-54 43.9-97.9 97.8-97.9S487 734 487 788c0.1 53.9-43.8 97.8-97.8 97.8z m0-153c-30.4 0-55.2 24.8-55.2 55.2 0 30.4 24.8 55.2 55.2 55.2 30.4 0 55.2-24.8 55.2-55.2 0-30.4-24.7-55.2-55.2-55.2zM686.5 885.8c-54 0-97.9-43.9-97.9-97.8 0-54 43.9-97.9 97.9-97.9 53.9 0 97.8 43.9 97.8 97.9 0.1 53.9-43.8 97.8-97.8 97.8z m0-153c-30.4 0-55.2 24.8-55.2 55.2 0 30.4 24.8 55.2 55.2 55.2 30.4 0 55.2-24.8 55.2-55.2 0-30.4-24.8-55.2-55.2-55.2zM258 347.3c-10 0-19-7.1-20.9-17.3L227 277.5c-0.5-1.1-4.2-4.2-9.1-4.2h-90c-11.8 0-21.3-9.6-21.3-21.3 0-11.8 9.6-21.3 21.3-21.3h90c24.8 0 46.7 16.7 50.9 38.8L279 322c2.2 11.6-5.4 22.8-16.9 25-1.4 0.2-2.7 0.3-4.1 0.3zM819.5 314.7H704.7c-11.8 0-21.3-9.6-21.3-21.3s9.5-21.3 21.3-21.3h114.8c11.8 0 21.3 9.6 21.3 21.3s-9.5 21.3-21.3 21.3z" fill="#666666" p-id="5460"></path><path d="M762.1 372.1c-11.8 0-21.3-9.6-21.3-21.3V236c0-11.8 9.5-21.3 21.3-21.3s21.3 9.6 21.3 21.3v114.8c0 11.8-9.5 21.3-21.3 21.3z" fill="#666666" p-id="5461"></path><path d="M728.1 657.1H347.7c-29.4 0-56.2-21.1-61.1-48.2L239 344.1c-3.4-19.2 1.2-38.2 12.8-52 10.9-13 26.4-20.1 43.8-20.1h354v21.3c0 62.1 50.5 112.6 112.5 112.6 11.1 0 22.2-1.7 32.9-5l33.5-10.3L789.2 609c-4.9 27-31.7 48.1-61.1 48.1zM295.6 314.7c-4.7 0-8.4 1.6-11.1 4.9-3.4 4.1-4.7 10.3-3.5 17.1l47.6 264.8c1.1 6 9.7 13 19.1 13h380.4c9.4 0 18-7 19.1-13l27.6-153.3c-4.2 0.3-8.4 0.5-12.6 0.5-78.4 0-143.3-58.4-153.8-133.9H295.6z" fill="#666666" p-id="5462"></path><path d="M762.1 448.6c-85.6 0-155.2-69.6-155.2-155.2s69.6-155.2 155.2-155.2 155.2 69.6 155.2 155.2-69.6 155.2-155.2 155.2z m0-267.8c-62.1 0-112.5 50.5-112.5 112.6S700 405.9 762.1 405.9s112.6-50.5 112.6-112.6-50.5-112.5-112.6-112.5z" fill="#666666" p-id="5463"></path></svg>