<svg id="cart" data-name="cart" xmlns="http://www.w3.org/2000/svg" viewBox="0 0 419.553 419.553"><defs><style>.cls-1{fill:none;stroke:#fff;stroke-miterlimit:10;stroke-width:14px;}</style></defs><title>cart</title><circle class="cls-1" cx="209.777" cy="209.777" r="202.777"/><path fill="#fff" d="M395.236,204.688H233.464l-2.3-13.787a27.583,27.583,0,0,0-27.114-22.979H187.506a9.192,9.192,0,1,0,0,18.383h16.545a9.351,9.351,0,0,1,9.192,7.814l21.6,124.086v.92a18.248,18.248,0,0,0,17.923,14.247H379.15a18.239,18.239,0,0,0,17.925-15.167l16.544-91.916c0-.919.46-2.3.46-3.216a19.149,19.149,0,0,0-18.843-18.385Zm-16.086,110.3H252.766L237.14,223.073H395.7Zm-131.9,27.573a27.576,27.576,0,1,0,27.575,27.576,27.658,27.658,0,0,0-27.575-27.576Zm0,36.768a9.192,9.192,0,1,1,9.192-9.192,9.219,9.219,0,0,1-9.192,9.192Zm133.278-36.768A27.576,27.576,0,1,0,408.1,370.138a27.658,27.658,0,0,0-27.575-27.576Zm0,36.768a9.192,9.192,0,1,1,9.193-9.192,9.218,9.218,0,0,1-9.193,9.192Zm0,0" transform="translate(-86.42 -73.041)"/></svg>