<svg id="组_1" data-name="组 1" xmlns="http://www.w3.org/2000/svg" width="68" height="70" viewBox="0 0 68 70">
  <defs>
    <style>
      .cls-1, .cls-2, .cls-3, .cls-4 {
        fill: none;
        stroke: #000;
        fill-rule: evenodd;
      }

      .cls-1, .cls-2 {
        stroke-width: 3px;
      }

      .cls-2, .cls-3 {
        stroke-linecap: round;
        stroke-linejoin: round;
      }

      .cls-3 {
        stroke-width: 1px;
      }

      .cls-4 {
        stroke-width: 1.5px;
      }
    </style>
  </defs>
  <path id="矩形_1_拷贝" data-name="矩形 1 拷贝" class="cls-1" d="M14.008,36.916L5.536,20.9a2.822,2.822,0,0,1,1.1-3.841L8.02,16.33a2.836,2.836,0,0,1,3.8,1.251l8.456,16.011"/>
  <path id="矩形_2" data-name="矩形 2" class="cls-2" d="M8.956,38.718l15.792-8.476a2.439,2.439,0,0,1,3.3,1L39.587,49.123a2.439,2.439,0,0,1-1,3.3L19.684,62.573a2.439,2.439,0,0,1-3.3-1L7.96,42.02A2.439,2.439,0,0,1,8.956,38.718Z"/>
  <path id="矩形_2_拷贝" data-name="矩形 2 拷贝" class="cls-3" d="M13.612,42.363l11.572-6.211a1.874,1.874,0,0,1,2.5.874l9.994,15.753-1.661,1.03L22.155,61.247l-1.727.65L12.96,44.927A1.874,1.874,0,0,1,13.612,42.363Z"/>
  <path id="形状_3" data-name="形状 3" class="cls-1" d="M57.227,21.508L51.862,58.7s-0.359,1.547-1.585,1.585-8.413-.122-8.413-0.122a1.893,1.893,0,0,1-1.585-1.707c-0.038-1.439,0-3.17,0-3.17a1.344,1.344,0,0,0-1.463-1.341,26.973,26.973,0,0,0-3.17,0"/>
  <path id="形状_4" data-name="形状 4" class="cls-4" d="M32,37H55"/>
  <path id="形状_4_拷贝" data-name="形状 4 拷贝" class="cls-4" d="M38,46H53"/>
  <path id="矩形_3" data-name="矩形 3" class="cls-1" d="M28.511,6h14a2.335,2.335,0,0,1,2.5,2.125v4.357a6.47,6.47,0,0,1-2.5.531h-14a14.964,14.964,0,0,1-2.5-.212V8.125A2.336,2.336,0,0,1,28.511,6Z"/>
  <path id="矩形_1" data-name="矩形 1" class="cls-1" d="M8.7,16.754A3.658,3.658,0,0,1,12.358,13.1H58.446A3.658,3.658,0,0,1,62.1,16.754v2.073a3.658,3.658,0,0,1-3.658,3.658H13.212"/>
</svg>
