<?xml version="1.0" standalone="no"?><!DOCTYPE svg PUBLIC "-//W3C//DTD SVG 1.1//EN" "http://www.w3.org/Graphics/SVG/1.1/DTD/svg11.dtd"><svg t="1596160707339" class="icon" viewBox="0 0 1024 1024" version="1.1" xmlns="http://www.w3.org/2000/svg" p-id="7444" xmlns:xlink="http://www.w3.org/1999/xlink" width="200" height="200"><defs><style type="text/css"></style></defs><path d="M276.864 131.669333a42.666667 42.666667 0 0 1 42.794667 73.813334 384 384 0 1 0 385.365333 0.426666 42.666667 42.666667 0 0 1 43.008-73.728A469.077333 469.077333 0 0 1 981.333333 537.941333c0 259.2-210.133333 469.333333-469.333333 469.333334s-469.333333-210.133333-469.333333-469.333334C42.666667 368.64 133.12 215.04 276.864 131.669333z" p-id="7445"></path><path d="M469.333333 0m42.666667 0l0 0q42.666667 0 42.666667 42.666667l0 256q0 42.666667-42.666667 42.666666l0 0q-42.666667 0-42.666667-42.666666l0-256q0-42.666667 42.666667-42.666667Z" p-id="7446"></path></svg>